<svg xmlns="http://www.w3.org/2000/svg">
    <defs>
        <symbol id="burgermenu" >
            <path d="M0 1H16M0 16H16M0 8.5H16" stroke-width="1.5"/>
        </symbol>
        <symbol id="phone">
            <path d="M15.2728 11.0447C14.4146 10.9388 13.5624 10.7886 12.7197 10.5947C12.5139 10.5259 12.2939 10.5114 12.0809 10.5526C11.8679 10.5938 11.6692 10.6893 11.5039 10.8298C11.2891 11.0488 10.669 11.661 10.0247 12.2935C7.71596 11.1581 5.84884 9.28868 4.71568 6.97806C5.34384 6.3334 5.93148 5.71711 6.17058 5.50223C6.31108 5.33686 6.40654 5.13801 6.44772 4.92492C6.4889 4.71183 6.4744 4.49172 6.40564 4.28588C6.2116 3.44143 6.06145 2.58749 5.95579 1.72749C5.94447 1.61797 5.91098 1.51191 5.85736 1.41577C5.80373 1.31962 5.7311 1.23541 5.64389 1.16827C5.55667 1.10112 5.45671 1.05244 5.35008 1.02521C5.24345 0.997969 5.1324 0.99274 5.02368 1.00984H1.57082C1.4283 1.02271 1.29488 1.08548 1.19406 1.18708C1.09324 1.28869 1.03148 1.42262 1.01966 1.56531C0.796764 4.68322 2.53535 8.02007 2.88793 8.66068V8.68501L2.93657 8.77826C4.1987 10.9683 6.016 12.7864 8.20502 14.0491V14.0491L8.38333 14.1505C9.19386 14.5803 12.4157 16.2021 15.4268 15.9791C15.5709 15.9691 15.7067 15.9081 15.8099 15.807C15.9131 15.706 15.977 15.5715 15.9902 15.4276V11.9773C16.0073 11.8685 16.002 11.7574 15.9748 11.6507C15.9476 11.544 15.8989 11.444 15.8318 11.3568C15.7647 11.2695 15.6805 11.1969 15.5844 11.1432C15.4883 11.0896 15.3823 11.0561 15.2728 11.0447Z" stroke-width="1.5" stroke-linecap="round" stroke-linejoin="round"/>
        </symbol>
        <symbol id="search">
            <path d="M15.9998 16L11.355 11.3548" stroke-width="1.5"/>
            <path d="M13.7004 7.22592C13.7004 10.8025 10.8013 13.7018 7.22522 13.7018C3.64912 13.7018 0.75 10.8025 0.75 7.22592C0.75 3.6493 3.64912 0.75 7.22522 0.75C10.8013 0.75 13.7004 3.6493 13.7004 7.22592Z" stroke-width="1.5"/>
        </symbol>
        <symbol id="account">
            <path d="M1 17V15.8571C1 13.3325 3.08934 11.2857 5.66667 11.2857H10.3333C12.9106 11.2857 15 13.3325 15 15.8571V17M8 7.85715C6.06695 7.85715 4.5 6.32212 4.5 4.42857C4.5 2.53503 6.06695 1 8 1C9.93305 1 11.5 2.53503 11.5 4.42857C11.5 6.32212 9.93305 7.85715 8 7.85715Z" stroke-width="1.5" stroke-linecap="round"/>
        </symbol>
        <symbol id="heart">
            <path d="M7.25 1C3.79875 1 1 3.85799 1 7.38404C1 10.2304 2.09375 16.9859 12.86 23.8149C13.0529 23.936 13.2743 24 13.5 24C13.7257 24 13.9471 23.936 14.14 23.8149C24.9062 16.9859 26 10.2304 26 7.38404C26 3.85799 23.2012 1 19.75 1C16.2988 1 13.5 4.86912 13.5 4.86912C13.5 4.86912 10.7012 1 7.25 1Z" stroke-width="2" stroke-linecap="round" stroke-linejoin="round"/>
        </symbol>
        <symbol id="basket">
            <path d="M28.9572 11.4104H27.9572C27.9572 11.3286 27.9672 11.2472 27.987 11.1679L28.9572 11.4104ZM27.56 9.625V8.625H27.5603L27.56 9.625ZM2.43997 9.625L2.4397 8.625H2.43997V9.625ZM1.04281 11.4104L0.0727901 11.6534L0.0726471 11.6528L1.04281 11.4104ZM3.65132 21.8222L4.62134 21.5792L4.62136 21.5792L3.65132 21.8222ZM6.44564 24V25H6.44549L6.44564 24ZM23.5544 24L23.5545 25H23.5544V24ZM26.3487 21.8222L25.3786 21.5792L25.3787 21.5791L26.3487 21.8222ZM28.9572 11.4118H29.9572C29.9572 11.4938 29.9471 11.5754 29.9272 11.6549L28.9572 11.4118ZM18.3212 15.375C18.3212 14.8227 18.7689 14.375 19.3212 14.375C19.8735 14.375 20.3212 14.8227 20.3212 15.375H18.3212ZM20.3212 18.25C20.3212 18.8023 19.8735 19.25 19.3212 19.25C18.7689 19.25 18.3212 18.8023 18.3212 18.25H20.3212ZM9.679 15.375C9.679 14.8227 10.1267 14.375 10.679 14.375C11.2313 14.375 11.679 14.8227 11.679 15.375H9.679ZM11.679 18.25C11.679 18.8023 11.2313 19.25 10.679 19.25C10.1267 19.25 9.679 18.8023 9.679 18.25H11.679ZM24.4739 9.06953C24.7806 9.52878 24.657 10.1498 24.1978 10.4565C23.7386 10.7633 23.1176 10.6397 22.8108 10.1805L24.4739 9.06953ZM17.0493 1.55547C16.7425 1.09622 16.8661 0.475236 17.3254 0.168461C17.7846 -0.138315 18.4056 -0.0147126 18.7124 0.444534L17.0493 1.55547ZM7.18943 10.1805C6.88265 10.6397 6.26167 10.7633 5.80243 10.4565C5.34318 10.1498 5.21958 9.52878 5.52635 9.06953L7.18943 10.1805ZM11.2878 0.444534C11.5946 -0.0147126 12.2156 -0.138315 12.6748 0.168461C13.1341 0.475236 13.2577 1.09622 12.9509 1.55547L11.2878 0.444534ZM27.987 11.1679C28.0031 11.1037 28.0042 11.0367 27.9905 10.972L29.9467 10.5556C30.0238 10.9181 30.0172 11.2933 29.9273 11.6528L27.987 11.1679ZM27.9905 10.972C27.9767 10.9073 27.9483 10.8464 27.9073 10.794L29.4823 9.56141C29.7107 9.85318 29.8695 10.1932 29.9467 10.5556L27.9905 10.972ZM27.9073 10.794C27.8663 10.7416 27.8137 10.699 27.7535 10.6697L28.6292 8.87159C28.9622 9.03378 29.254 9.26964 29.4823 9.56141L27.9073 10.794ZM27.7535 10.6697C27.6932 10.6403 27.627 10.625 27.5598 10.625L27.5603 8.625C27.9307 8.6251 28.2962 8.7094 28.6292 8.87159L27.7535 10.6697ZM27.56 10.625H2.43997V8.625H27.56V10.625ZM2.44025 10.625C2.37303 10.625 2.30677 10.6403 2.24653 10.6697L1.37079 8.87159C1.70379 8.7094 2.06933 8.6251 2.4397 8.625L2.44025 10.625ZM2.24653 10.6697C2.18629 10.699 2.13371 10.7416 2.09271 10.794L0.517656 9.56141C0.745985 9.26963 1.03778 9.03378 1.37079 8.87159L2.24653 10.6697ZM2.09271 10.794C2.0517 10.8464 2.0233 10.9073 2.00952 10.972L0.0533428 10.5556C0.130487 10.1932 0.289326 9.85318 0.517656 9.56141L2.09271 10.794ZM2.00952 10.972C1.99575 11.0367 1.99692 11.1037 2.01297 11.1679L0.0726471 11.6528C-0.0171967 11.2933 -0.0238037 10.9181 0.0533428 10.5556L2.00952 10.972ZM2.01283 11.1674L4.62134 21.5792L2.6813 22.0652L0.0727901 11.6534L2.01283 11.1674ZM4.62136 21.5792C4.72285 21.9845 4.95725 22.3446 5.28774 22.6022L4.0583 24.1797C3.37619 23.6481 2.89135 22.9039 2.68128 22.0651L4.62136 21.5792ZM5.28774 22.6022C5.61827 22.8598 6.02588 22.9999 6.44579 23L6.44549 25C5.58062 24.9999 4.74037 24.7113 4.0583 24.1797L5.28774 22.6022ZM6.44564 23H23.5544V25H6.44564V23ZM23.5542 23C23.9741 22.9999 24.3817 22.8598 24.7123 22.6022L25.9417 24.1797C25.2596 24.7113 24.4194 24.9999 23.5545 25L23.5542 23ZM24.7123 22.6022C25.0427 22.3446 25.2771 21.9845 25.3786 21.5792L27.3187 22.0651C27.1086 22.9039 26.6238 23.6481 25.9417 24.1797L24.7123 22.6022ZM25.3787 21.5791L27.9872 11.1688L29.9272 11.6549L27.3187 22.0652L25.3787 21.5791ZM27.9572 11.4118V11.4104H29.9572V11.4118H27.9572ZM20.3212 15.375V18.25H18.3212V15.375H20.3212ZM11.679 15.375V18.25H9.679V15.375H11.679ZM22.8108 10.1805L17.0493 1.55547L18.7124 0.444534L24.4739 9.06953L22.8108 10.1805ZM5.52635 9.06953L11.2878 0.444534L12.9509 1.55547L7.18943 10.1805L5.52635 9.06953Z" />
        </symbol>
        <symbol id="inputcross">
            <path d="M1 1L13 13" stroke-width="1.3"/>
            <path d="M13 1L1 13" stroke-width="1.3"/>
        </symbol>
        <symbol id="inputsearch">
            <path d="M11 5.96389C11 8.70537 8.76142 10.9278 6 10.9278C3.23858 10.9278 1 8.70537 1 5.96389C1 3.22241 3.23858 1 6 1C8.76142 1 11 3.22241 11 5.96389Z" fill="white"/>
            <path d="M9 9.0227L13 13M11 5.96389C11 8.70537 8.76142 10.9278 6 10.9278C3.23858 10.9278 1 8.70537 1 5.96389C1 3.22241 3.23858 1 6 1C8.76142 1 11 3.22241 11 5.96389Z" stroke="#C0C0C0" stroke-width="1.3"/>
        <symbol id="instagram">
            <path d="M19 0C13.8439 0 13.1955 0.02375 11.1696 0.114C9.14375 0.209 7.76388 0.52725 6.555 0.9975C5.28697 1.47445 4.13842 2.22259 3.18963 3.18963C2.22318 4.1389 1.47513 5.28732 0.9975 6.555C0.52725 7.7615 0.206625 9.14375 0.114 11.1625C0.02375 13.1931 0 13.8391 0 19.0024C0 24.1609 0.02375 24.8069 0.114 26.8328C0.209 28.8563 0.52725 30.2361 0.9975 31.445C1.48438 32.6942 2.13275 33.7535 3.18963 34.8104C4.24413 35.8672 5.30338 36.518 6.55263 37.0025C7.76388 37.4728 9.14138 37.7934 11.1649 37.886C13.1931 37.9762 13.8391 38 19 38C24.1609 38 24.8045 37.9762 26.8328 37.886C28.8539 37.791 30.2385 37.4728 31.4474 37.0025C32.7146 36.5253 33.8623 35.7772 34.8104 34.8104C35.8672 33.7535 36.5156 32.6942 37.0025 31.445C37.4704 30.2361 37.791 28.8563 37.886 26.8328C37.9762 24.8069 38 24.1609 38 19C38 13.8391 37.9762 13.1931 37.886 11.1649C37.791 9.14375 37.4704 7.7615 37.0025 6.555C36.5249 5.28729 35.7769 4.13885 34.8104 3.18963C33.8619 2.22223 32.7132 1.47403 31.445 0.9975C30.2337 0.52725 28.8515 0.206625 26.8304 0.114C24.8021 0.02375 24.1585 0 18.9953 0H19.0024H19ZM17.2971 3.42475H19.0024C24.0754 3.42475 24.6763 3.44138 26.6784 3.534C28.5309 3.61713 29.5379 3.92825 30.2076 4.18713C31.0935 4.5315 31.7276 4.94475 32.3926 5.60975C33.0576 6.27475 33.4685 6.9065 33.8129 7.79475C34.0741 8.46212 34.3829 9.46913 34.466 11.3216C34.5586 13.3238 34.5776 13.9246 34.5776 18.9953C34.5776 24.0659 34.5586 24.6691 34.466 26.6712C34.3829 28.5237 34.0718 29.5284 33.8129 30.1981C33.5083 31.0231 33.0221 31.769 32.3902 32.3807C31.7252 33.0457 31.0935 33.4566 30.2053 33.801C29.5403 34.0623 28.5332 34.371 26.6784 34.4565C24.6763 34.5467 24.0754 34.5681 19.0024 34.5681C13.9294 34.5681 13.3261 34.5467 11.324 34.4565C9.4715 34.371 8.46688 34.0623 7.79712 33.801C6.97181 33.4968 6.22517 33.0115 5.61212 32.3807C4.97978 31.7681 4.49284 31.0214 4.18713 30.1957C3.92825 29.5284 3.61713 28.5214 3.534 26.6689C3.44375 24.6667 3.42475 24.0659 3.42475 18.9905C3.42475 13.9175 3.44375 13.319 3.534 11.3169C3.6195 9.46437 3.92825 8.45738 4.1895 7.78763C4.53387 6.90175 4.94712 6.26762 5.61212 5.60262C6.27712 4.93762 6.90887 4.52675 7.79712 4.18237C8.46688 3.92113 9.4715 3.61238 11.324 3.52688C13.0767 3.44613 13.756 3.42238 17.2971 3.42V3.42475ZM29.1436 6.57875C28.8442 6.57875 28.5477 6.63772 28.2711 6.75231C27.9945 6.86689 27.7431 7.03483 27.5314 7.24655C27.3197 7.45826 27.1518 7.70961 27.0372 7.98623C26.9226 8.26285 26.8636 8.55934 26.8636 8.85875C26.8636 9.15816 26.9226 9.45465 27.0372 9.73127C27.1518 10.0079 27.3197 10.2592 27.5314 10.471C27.7431 10.6827 27.9945 10.8506 28.2711 10.9652C28.5477 11.0798 28.8442 11.1388 29.1436 11.1388C29.7483 11.1388 30.3282 10.8985 30.7558 10.471C31.1834 10.0434 31.4236 9.46344 31.4236 8.85875C31.4236 8.25406 31.1834 7.67413 30.7558 7.24655C30.3282 6.81896 29.7483 6.57875 29.1436 6.57875ZM19.0024 9.2435C17.7082 9.22331 16.4229 9.46078 15.2213 9.94209C14.0198 10.4234 12.926 11.1389 12.0036 12.047C11.0812 12.9551 10.3487 14.0376 9.84875 15.2315C9.34876 16.4254 9.09126 17.7068 9.09126 19.0012C9.09126 20.2956 9.34876 21.577 9.84875 22.7709C10.3487 23.9648 11.0812 25.0473 12.0036 25.9554C12.926 26.8635 14.0198 27.579 15.2213 28.0603C16.4229 28.5416 17.7082 28.7791 19.0024 28.7589C21.5639 28.7189 24.007 27.6733 25.8043 25.8477C27.6016 24.0221 28.609 21.563 28.609 19.0012C28.609 16.4393 27.6016 13.9802 25.8043 12.1547C24.007 10.3291 21.5639 9.28346 19.0024 9.2435ZM19.0024 12.6659C20.6823 12.6659 22.2934 13.3332 23.4813 14.5211C24.6692 15.709 25.3365 17.3201 25.3365 19C25.3365 20.6799 24.6692 22.291 23.4813 23.4789C22.2934 24.6668 20.6823 25.3341 19.0024 25.3341C17.3225 25.3341 15.7114 24.6668 14.5235 23.4789C13.3356 22.291 12.6683 20.6799 12.6683 19C12.6683 17.3201 13.3356 15.709 14.5235 14.5211C15.7114 13.3332 17.3225 12.6659 19.0024 12.6659Z" />
        </symbol>
        <symbol id="facebook">
            <path fill-rule="evenodd" clip-rule="evenodd" d="M0 19.1061C0 28.5523 6.86058 36.4072 15.8333 38V24.2773H11.0833V19H15.8333V14.7773C15.8333 10.0273 18.8939 7.38942 23.2227 7.38942C24.5939 7.38942 26.0728 7.6 27.4439 7.81058V12.6667H25.0167C22.6939 12.6667 22.1667 13.8273 22.1667 15.3061V19H27.2333L26.3894 24.2773H22.1667V38C31.1394 36.4072 38 28.5538 38 19.1061C38 8.5975 29.45 0 19 0C8.55 0 0 8.5975 0 19.1061Z" />
        </symbol>
        <symbol id="youtube">
            <path d="M48.953 5.1777C48.67 4.17849 48.1185 3.27385 47.3574 2.55995C46.5748 1.8241 45.6156 1.29773 44.5703 1.03053C40.6583 0.0102211 24.9854 0.0102214 24.9854 0.0102214C18.4516 -0.0633382 11.9193 0.260195 5.42556 0.978995C4.38026 1.26594 3.42283 1.80407 2.63843 2.54552C1.8677 3.27932 1.30944 4.18419 1.01782 5.17564C0.31727 8.91005 -0.0231027 12.7019 0.00128563 16.5C-0.023711 20.2947 0.315827 24.0853 1.01782 27.8243C1.30319 28.8117 1.85937 29.7124 2.63218 30.44C3.40499 31.1676 4.36737 31.6932 5.42556 31.9715C9.38961 32.9898 24.9854 32.9898 24.9854 32.9898C31.5276 33.0634 38.0682 32.7399 44.5703 32.021C45.6156 31.7538 46.5748 31.2274 47.3574 30.4916C48.1183 29.7778 48.669 28.873 48.951 27.8738C49.6698 24.1408 50.0193 20.3474 49.9946 16.5474C50.0486 12.7313 49.6996 8.91998 48.953 5.17564V5.1777ZM20.0028 23.5576V9.44443L33.0427 16.5021L20.0028 23.5576Z" />
        </symbol>
        <symbol id="helpbubble" viewBox="0 0 16 16">
            <path d="M7.25001 5.305C7.09001 5.489 7.00001 5.743 7.00001 5.998C7.00001 6.13061 6.94733 6.25779 6.85356 6.35156C6.75979 6.44533 6.63262 6.498 6.50001 6.498C6.3674 6.498 6.24022 6.44533 6.14645 6.35156C6.05269 6.25779 6.00001 6.13061 6.00001 5.998C6.00001 5.525 6.16101 5.028 6.50001 4.644C6.84701 4.25 7.36001 3.998 8.00001 3.998C8.64001 3.998 9.15301 4.25 9.50001 4.644C9.83901 5.029 10 5.524 10 5.998C10 6.488 9.88401 6.868 9.69801 7.188C9.53501 7.467 9.32201 7.688 9.15301 7.865L9.11101 7.908C8.92501 8.103 8.78201 8.262 8.67701 8.462C8.57701 8.653 8.50001 8.906 8.50001 9.291C8.50001 9.42361 8.44733 9.55079 8.35356 9.64456C8.25979 9.73833 8.13262 9.791 8.00001 9.791C7.8674 9.791 7.74022 9.73833 7.64645 9.64456C7.55269 9.55079 7.50001 9.42361 7.50001 9.291C7.50001 8.759 7.61001 8.344 7.79101 7.998C7.96801 7.661 8.20101 7.414 8.38901 7.217L8.41101 7.194C8.59901 6.997 8.73301 6.857 8.83401 6.684C8.92901 6.521 9.00001 6.315 9.00001 5.998C9.00001 5.743 8.91101 5.488 8.75001 5.305C8.59701 5.132 8.36001 4.998 8.00001 4.998C7.64001 4.998 7.40301 5.132 7.25001 5.305ZM8.00001 12.21C8.09409 12.2136 8.18793 12.1981 8.2759 12.1646C8.36387 12.131 8.44417 12.0801 8.51199 12.0147C8.57981 11.9494 8.63377 11.8711 8.67062 11.7845C8.70747 11.6978 8.72646 11.6047 8.72646 11.5105C8.72646 11.4164 8.70747 11.3232 8.67062 11.2365C8.63377 11.1499 8.57981 11.0716 8.51199 11.0063C8.44417 10.941 8.36387 10.89 8.2759 10.8565C8.18793 10.8229 8.09409 10.8074 8.00001 10.811C7.81436 10.811 7.63631 10.8848 7.50503 11.016C7.37376 11.1473 7.30001 11.3254 7.30001 11.511C7.30001 11.6967 7.37376 11.8747 7.50503 12.006C7.63631 12.1373 7.81436 12.211 8.00001 12.211V12.21ZM8.59493e-06 7.998C0.000445193 6.24983 0.573501 4.54991 1.63153 3.15826C2.68956 1.76661 4.17431 0.759826 5.8587 0.291903C7.54309 -0.176021 9.33439 -0.079327 10.9586 0.567195C12.5829 1.21372 13.9506 2.37448 14.8527 3.87193C15.7548 5.36939 16.1415 7.12112 15.9537 8.85918C15.766 10.5972 15.0141 12.226 13.813 13.4962C12.612 14.7665 11.0279 15.6084 9.30307 15.8932C7.57824 16.1779 5.80762 15.8898 4.26201 15.073L0.622009 15.983C0.538234 16.0041 0.450433 16.0031 0.367163 15.9801C0.283893 15.9571 0.207995 15.913 0.146864 15.8519C0.0857338 15.7909 0.0414572 15.7151 0.0183492 15.6318C-0.00475879 15.5486 -0.00590963 15.4608 0.0150087 15.377L0.925009 11.736C0.315703 10.5844 -0.00190487 9.30089 8.59493e-06 7.998ZM8.00001 0.998004C6.77839 0.997631 5.57794 1.31697 4.51796 1.92427C3.45799 2.53158 2.57541 3.4057 1.95792 4.45978C1.34044 5.51386 1.00957 6.71118 0.998178 7.93275C0.986789 9.15432 1.29529 10.3576 1.89301 11.423C1.95578 11.5341 1.97367 11.6651 1.94301 11.789L1.18701 14.811L4.20901 14.055C4.33292 14.0243 4.46386 14.0422 4.57501 14.105C5.50827 14.6278 6.54894 14.9298 7.61709 14.9877C8.68525 15.0457 9.75247 14.858 10.7368 14.4392C11.7211 14.0204 12.5964 13.3816 13.2953 12.5718C13.9943 11.7619 14.4983 10.8027 14.7688 9.76775C15.0392 8.73278 15.0689 7.64959 14.8555 6.60137C14.642 5.55316 14.1912 4.5678 13.5376 3.72097C12.884 2.87415 12.045 2.18839 11.085 1.71636C10.1251 1.24433 9.06973 0.998586 8.00001 0.998004Z" />
        </symbol>
        <symbol id="mail">
            <path d="M20 3.48944L10.5 8.49999L1 3.48944M20 14.8889V2.11111C20 1.81643 19.8973 1.53381 19.7146 1.32544C19.5319 1.11706 19.2841 1 19.0256 1H1.97436C1.71594 1 1.46811 1.11706 1.28538 1.32544C1.10266 1.53381 1 1.81643 1 2.11111V14.8889C1 15.1836 1.10266 15.4662 1.28538 15.6746C1.46811 15.8829 1.71594 16 1.97436 16H19.0256C19.2841 16 19.5319 15.8829 19.7146 15.6746C19.8973 15.4662 20 15.1836 20 14.8889Z" stroke-linecap="round" stroke-linejoin="round"/>
        </symbol>
        <symbol id="viber">
            <path d="M10.4498 0C8.68342 0.0256667 4.88842 0.315333 2.76817 2.26142C1.19333 3.83808 0.637833 6.14167 0.580083 8.99892C0.522333 11.8553 0.447167 17.2113 5.60983 18.6633H5.61258L5.60892 20.878C5.60892 20.878 5.575 21.7736 6.16808 21.9569C6.88033 22.1787 7.29925 21.4986 7.98308 20.7634C8.35617 20.3601 8.87408 19.7697 9.26367 19.3151C12.7928 19.6139 15.508 18.9338 15.8178 18.8338C16.5292 18.6028 20.5625 18.0858 21.2188 12.7316C21.8972 7.21325 20.8888 3.72075 19.0738 2.14775C18.5275 1.64358 16.3183 0.0394167 11.3967 0.0183333C11.3967 0.0183333 11.0347 -0.00458333 10.4462 0.00275L10.4498 0ZM10.503 1.55192C11.0026 1.54825 11.3097 1.5675 11.3097 1.5675C15.4732 1.58583 17.4669 2.83983 17.9298 3.25967C19.4652 4.57508 20.249 7.722 19.677 12.3319V12.3337C19.1233 16.8053 15.8508 17.0858 15.2477 17.2792C14.991 17.3617 12.6058 17.9548 9.60742 17.7595C9.60742 17.7595 7.37442 20.4545 6.67683 21.1548C6.56683 21.2648 6.4385 21.3079 6.35417 21.2868C6.235 21.2566 6.202 21.1145 6.20292 20.9073L6.22125 17.2242C1.85608 16.0142 2.11 11.4565 2.16042 9.07042C2.20992 6.68342 2.65817 4.72725 3.99008 3.41183C5.78675 1.78658 9.00792 1.562 10.5076 1.551L10.503 1.55192ZM10.8513 3.93708C10.7803 3.94067 10.7133 3.9713 10.6641 4.02271C10.6149 4.07412 10.5872 4.1424 10.5867 4.21356C10.5862 4.28472 10.613 4.35336 10.6615 4.40541C10.7101 4.45746 10.7766 4.48898 10.8477 4.4935C12.3363 4.50267 13.5482 4.98575 14.54 5.95283C15.5236 6.91167 16.025 8.21517 16.0369 9.92567C16.0388 10.0788 16.1652 10.2007 16.3183 10.2007C16.3916 10.1997 16.4615 10.1699 16.513 10.1178C16.5645 10.0656 16.5933 9.99528 16.5933 9.922C16.5805 8.10333 16.0268 6.62567 14.9287 5.555C13.8378 4.49167 12.461 3.94808 10.8522 3.93708H10.8513ZM7.22133 4.57417C7.02645 4.54718 6.82809 4.58486 6.65667 4.68142L6.6475 4.68325C6.25333 4.90967 5.8995 5.19842 5.597 5.53758C5.59517 5.54125 5.5915 5.54125 5.58967 5.54492C5.34492 5.841 5.20467 6.12975 5.168 6.41392C5.16082 6.45629 5.15867 6.49937 5.16158 6.54225C5.16158 6.66692 5.18175 6.78975 5.22117 6.90892L5.23308 6.91808C5.35683 7.35808 5.66667 8.08775 6.33767 9.30508C6.72267 10.0091 7.16542 10.6801 7.66317 11.3089C7.91067 11.6243 8.1765 11.9258 8.46067 12.2109L8.58167 12.3319C8.86583 12.6143 9.16833 12.8819 9.48367 13.1294C10.113 13.6273 10.7833 14.071 11.4875 14.4558C12.7048 15.1278 13.4363 15.4367 13.8745 15.5613L13.8837 15.5742C14.0431 15.6263 14.212 15.6435 14.3787 15.6246C14.6628 15.5916 14.9534 15.4504 15.2477 15.2029C15.2513 15.2029 15.2504 15.2011 15.255 15.1983C15.5942 14.8958 15.8811 14.5383 16.1075 14.146L16.1103 14.1368C16.3165 13.7408 16.2478 13.365 15.9453 13.1102C15.9416 13.1102 15.3054 12.5785 14.9947 12.3493C14.6647 12.1156 14.3255 11.8983 13.9744 11.6985C13.5069 11.4373 13.0284 11.6013 12.8304 11.858L12.4207 12.375C12.2098 12.6344 11.8184 12.6005 11.8184 12.6005C8.95842 11.8708 8.193 8.97508 8.193 8.97508C8.193 8.97508 8.15908 8.58458 8.42033 8.37375L8.93642 7.96308C9.19033 7.766 9.35442 7.2875 9.09225 6.81908C8.89315 6.46735 8.67591 6.12619 8.44142 5.797C8.19524 5.47486 7.94156 5.15852 7.68058 4.84825C7.56563 4.7043 7.40193 4.60745 7.22042 4.576L7.22133 4.57417ZM11.3372 5.38083C11.2635 5.37865 11.192 5.40581 11.1384 5.45635C11.0847 5.50689 11.0534 5.57667 11.0512 5.65033C11.049 5.724 11.0761 5.79551 11.1267 5.84915C11.1772 5.90278 11.247 5.93415 11.3207 5.93633C12.384 6.01425 13.1696 6.3635 13.7452 6.9905C14.3227 7.62117 14.5977 8.3875 14.5757 9.34633C14.5798 9.41683 14.6102 9.48322 14.661 9.53226C14.7118 9.5813 14.7792 9.60937 14.8498 9.61087C14.9204 9.61238 14.989 9.5872 15.0418 9.54037C15.0947 9.49355 15.1279 9.42851 15.1349 9.35825C15.1578 8.28117 14.8287 7.348 14.1568 6.61375C13.4785 5.87125 12.5279 5.46517 11.361 5.37992H11.339L11.3372 5.38083ZM11.7616 6.875C11.691 6.87603 11.6234 6.90373 11.5724 6.95253C11.5214 7.00133 11.4907 7.06762 11.4866 7.13808C11.4792 7.29117 11.5966 7.42225 11.7506 7.43142C12.23 7.45708 12.5527 7.59183 12.7708 7.81825C12.9908 8.04283 13.1265 8.38658 13.1522 8.88525C13.1616 8.95436 13.1966 9.01742 13.2503 9.06197C13.304 9.10652 13.3724 9.12932 13.4421 9.12587C13.5117 9.12241 13.5776 9.09295 13.6266 9.04331C13.6756 8.99367 13.7042 8.92746 13.7067 8.85775C13.6792 8.26742 13.5097 7.77792 13.1751 7.4305C12.8387 7.084 12.3565 6.90433 11.7817 6.87408H11.7652L11.7616 6.875Z" />
        </symbol>
        <symbol id="telegram">
            <path d="M19.1442 1C19.7297 1 20.1713 1.4833 19.9351 2.38224L17.0692 15.0931C16.8689 15.9968 16.2886 16.2143 15.4873 15.7939L8.65138 11.043C8.62487 11.0251 8.60327 11.0015 8.58837 10.9742C8.57347 10.9469 8.5657 10.9166 8.5657 10.8859C8.5657 10.8552 8.57347 10.825 8.58837 10.7976C8.60327 10.7703 8.62487 10.7468 8.65138 10.7289L16.5454 4.02063C16.9049 3.72099 16.4683 3.576 15.9958 3.84664L6.08853 9.72842C6.05849 9.74686 6.02437 9.75862 5.98878 9.76281C5.95318 9.76699 5.91704 9.7635 5.88309 9.75259L1.67674 8.50084C0.741994 8.24469 0.741994 7.64056 1.88731 7.21042L18.7179 1.10149C18.8513 1.04124 18.9963 1.00673 19.1442 1V1Z" stroke-linecap="round" stroke-linejoin="round"/>
        </symbol>
        <symbol id="triangle">
            <path d="M5.5 5L2 1H9L5.5 5Z" />
        </symbol>
        <symbol id="home" viewBox="0 0 23 23" fill="none">
            <g clip-path="url(#clip0_331_4292)">
                <path d="M22.7917 10.9897L12.0105 0.208458C11.8758 0.0745901 11.6936 -0.000549316 11.5038 -0.000549316C11.3139 -0.000549316 11.1317 0.0745901 10.997 0.208458L0.215797 10.9897C0.0980471 11.1272 0.0365177 11.3041 0.0435048 11.485C0.0504919 11.6659 0.125481 11.8375 0.253486 11.9655C0.381492 12.0935 0.553086 12.1685 0.733978 12.1754C0.91487 12.1824 1.09174 12.1209 1.22923 12.0031L11.5002 1.73221L21.7711 12.0103C21.9086 12.1281 22.0855 12.1896 22.2664 12.1826C22.4473 12.1756 22.6189 12.1007 22.7469 11.9726C22.8749 11.8446 22.9499 11.673 22.9568 11.4922C22.9638 11.3113 22.9023 11.1344 22.7845 10.9969L22.7917 10.9897Z" fill="#A1A1A1" />
                <path d="M18.6875 21.5625H15.0938V14.375H7.90625V21.5625H4.3125V11.5L2.875 12.9375V21.5625C2.875 21.9438 3.02645 22.3094 3.29603 22.579C3.56562 22.8486 3.93125 23 4.3125 23H9.34375V15.8125H13.6562V23H18.6875C19.0687 23 19.4344 22.8486 19.704 22.579C19.9735 22.3094 20.125 21.9438 20.125 21.5625V12.765L18.6875 11.3275V21.5625Z" fill="#A1A1A1" />
            </g>
            <defs>
                <clipPath id="clip0_331_4292">
                <rect width="23" height="23" fill="white"/>
            </clipPath>
            </defs>
        </symbol>
        <symbol id="lupa" viewBox="0 0 31 30" >
            <path d="M30 29L21.25 20.1739"  stroke-width="2"/>
            <path d="M25.25 13.2391C25.25 20.0068 19.8133 25.4783 13.125 25.4783C6.43669 25.4783 1 20.0068 1 13.2391C1 6.47146 6.43669 1 13.125 1C19.8133 1 25.25 6.47146 25.25 13.2391Z"  stroke-width="2"/>
        </symbol>
        <symbol id="listarrow" viewBox="0 0 8 14">
            <path d="M1 13L7 7L1 1" stroke-width="1.2"/>
        </symbol>
        <symbol id="map" viewBox="0 0 17 23">
            <path d="M8.5 1C6.51088 1 4.60322 1.84075 3.1967 3.33729C1.79018 4.83383 1 6.86357 1 8.98V8.98V9.56154C1.30364 13.9338 4.71457 17.45 8.5 22C12.4524 17.2508 16 13.6538 16 8.98C16 6.86357 15.2098 4.83383 13.8033 3.33729C12.3968 1.84075 10.4891 1 8.5 1ZM8.5 5.14615C9.21387 5.14615 9.9117 5.37146 10.5052 5.79356C11.0987 6.21566 11.5612 6.81558 11.8341 7.51742C12.1071 8.21926 12.1782 8.99148 12.0386 9.73636C11.899 10.4812 11.5548 11.1653 11.0497 11.702C10.5445 12.2387 9.90111 12.604 9.20084 12.7515C8.50056 12.899 7.77489 12.8222 7.11565 12.5308C6.45641 12.2394 5.89322 11.7465 5.49735 11.1144C5.10147 10.4824 4.8907 9.73956 4.8917 8.98C4.89304 7.96271 5.27379 6.98757 5.95033 6.26873C6.62688 5.5499 7.5439 5.14615 8.5 5.14615Z" stroke="#0A0A0A" stroke-linecap="round" stroke-linejoin="round"/>
        </symbol>
        <symbol id="arrowback" viewBox="0 0 34 12">
            <path d="M0.469669 5.46967C0.176777 5.76256 0.176777 6.23744 0.469669 6.53033L5.24264 11.3033C5.53553 11.5962 6.01041 11.5962 6.3033 11.3033C6.59619 11.0104 6.59619 10.5355 6.3033 10.2426L2.06066 6L6.3033 1.75736C6.59619 1.46447 6.59619 0.989593 6.3033 0.696699C6.01041 0.403806 5.53553 0.403806 5.24264 0.696699L0.469669 5.46967ZM34 5.25L1 5.25V6.75L34 6.75V5.25Z" fill="#0A0A0A"/>
        </symbol>
    </defs>
</svg>